<mxfile host="app.diagrams.net" modified="2023-04-25T14:28:50.642Z" agent="Mozilla/5.0 (Windows NT 10.0; Win64; x64) AppleWebKit/537.36 (KHTML, like Gecko) Chrome/112.0.0.0 Safari/537.36" etag="n2VDya7WoGahRYIELO74" version="21.2.1" type="github">
  <diagram id="C5RBs43oDa-KdzZeNtuy" name="Page-1">
    <mxGraphModel dx="1434" dy="796" grid="1" gridSize="10" guides="1" tooltips="1" connect="1" arrows="1" fold="1" page="1" pageScale="1" pageWidth="827" pageHeight="1169" math="0" shadow="0">
      <root>
        <mxCell id="WIyWlLk6GJQsqaUBKTNV-0" />
        <mxCell id="WIyWlLk6GJQsqaUBKTNV-1" parent="WIyWlLk6GJQsqaUBKTNV-0" />
        <mxCell id="WIyWlLk6GJQsqaUBKTNV-2" value="" style="rounded=0;html=1;jettySize=auto;orthogonalLoop=1;fontSize=11;endArrow=block;endFill=0;endSize=8;strokeWidth=1;shadow=0;labelBackgroundColor=none;edgeStyle=orthogonalEdgeStyle;" parent="WIyWlLk6GJQsqaUBKTNV-1" source="WIyWlLk6GJQsqaUBKTNV-3" edge="1">
          <mxGeometry relative="1" as="geometry">
            <mxPoint x="220" y="170" as="targetPoint" />
          </mxGeometry>
        </mxCell>
        <mxCell id="WIyWlLk6GJQsqaUBKTNV-3" value="You are transported into the world of Python Rogue-Like Adventure." style="rounded=1;whiteSpace=wrap;html=1;fontSize=12;glass=0;strokeWidth=1;shadow=0;" parent="WIyWlLk6GJQsqaUBKTNV-1" vertex="1">
          <mxGeometry x="150" y="70" width="150" height="70" as="geometry" />
        </mxCell>
        <mxCell id="gE25xzaNOcveznmByc2P-14" style="edgeStyle=orthogonalEdgeStyle;rounded=0;orthogonalLoop=1;jettySize=auto;html=1;exitX=0.5;exitY=1;exitDx=0;exitDy=0;" edge="1" parent="WIyWlLk6GJQsqaUBKTNV-1" source="gE25xzaNOcveznmByc2P-2" target="gE25xzaNOcveznmByc2P-11">
          <mxGeometry relative="1" as="geometry" />
        </mxCell>
        <mxCell id="gE25xzaNOcveznmByc2P-2" value="Chaotic" style="rhombus;whiteSpace=wrap;html=1;" vertex="1" parent="WIyWlLk6GJQsqaUBKTNV-1">
          <mxGeometry x="360" y="290" width="80" height="80" as="geometry" />
        </mxCell>
        <mxCell id="gE25xzaNOcveznmByc2P-4" style="edgeStyle=orthogonalEdgeStyle;rounded=0;orthogonalLoop=1;jettySize=auto;html=1;exitX=1;exitY=0.5;exitDx=0;exitDy=0;" edge="1" parent="WIyWlLk6GJQsqaUBKTNV-1" source="gE25xzaNOcveznmByc2P-3" target="gE25xzaNOcveznmByc2P-2">
          <mxGeometry relative="1" as="geometry" />
        </mxCell>
        <mxCell id="gE25xzaNOcveznmByc2P-7" style="edgeStyle=orthogonalEdgeStyle;rounded=0;orthogonalLoop=1;jettySize=auto;html=1;exitX=0.5;exitY=1;exitDx=0;exitDy=0;" edge="1" parent="WIyWlLk6GJQsqaUBKTNV-1" source="gE25xzaNOcveznmByc2P-3" target="gE25xzaNOcveznmByc2P-6">
          <mxGeometry relative="1" as="geometry" />
        </mxCell>
        <mxCell id="gE25xzaNOcveznmByc2P-8" style="edgeStyle=orthogonalEdgeStyle;rounded=0;orthogonalLoop=1;jettySize=auto;html=1;exitX=0;exitY=0.75;exitDx=0;exitDy=0;" edge="1" parent="WIyWlLk6GJQsqaUBKTNV-1" source="gE25xzaNOcveznmByc2P-3" target="gE25xzaNOcveznmByc2P-5">
          <mxGeometry relative="1" as="geometry" />
        </mxCell>
        <mxCell id="gE25xzaNOcveznmByc2P-3" value="Would you like to become Orderly, Neutral, or Chaotic" style="shape=parallelogram;perimeter=parallelogramPerimeter;whiteSpace=wrap;html=1;fixedSize=1;" vertex="1" parent="WIyWlLk6GJQsqaUBKTNV-1">
          <mxGeometry x="165" y="170" width="120" height="60" as="geometry" />
        </mxCell>
        <mxCell id="gE25xzaNOcveznmByc2P-9" style="edgeStyle=orthogonalEdgeStyle;rounded=0;orthogonalLoop=1;jettySize=auto;html=1;exitX=0.5;exitY=1;exitDx=0;exitDy=0;" edge="1" parent="WIyWlLk6GJQsqaUBKTNV-1" source="gE25xzaNOcveznmByc2P-5" target="gE25xzaNOcveznmByc2P-10">
          <mxGeometry relative="1" as="geometry">
            <mxPoint x="90" y="410" as="targetPoint" />
          </mxGeometry>
        </mxCell>
        <mxCell id="gE25xzaNOcveznmByc2P-5" value="Orderly" style="rhombus;whiteSpace=wrap;html=1;" vertex="1" parent="WIyWlLk6GJQsqaUBKTNV-1">
          <mxGeometry x="50" y="270" width="80" height="80" as="geometry" />
        </mxCell>
        <mxCell id="gE25xzaNOcveznmByc2P-13" style="edgeStyle=orthogonalEdgeStyle;rounded=0;orthogonalLoop=1;jettySize=auto;html=1;exitX=0.5;exitY=1;exitDx=0;exitDy=0;" edge="1" parent="WIyWlLk6GJQsqaUBKTNV-1" source="gE25xzaNOcveznmByc2P-6" target="gE25xzaNOcveznmByc2P-12">
          <mxGeometry relative="1" as="geometry" />
        </mxCell>
        <mxCell id="gE25xzaNOcveznmByc2P-6" value="Neutral" style="rhombus;whiteSpace=wrap;html=1;" vertex="1" parent="WIyWlLk6GJQsqaUBKTNV-1">
          <mxGeometry x="200" y="280" width="80" height="80" as="geometry" />
        </mxCell>
        <mxCell id="gE25xzaNOcveznmByc2P-23" style="edgeStyle=orthogonalEdgeStyle;rounded=0;orthogonalLoop=1;jettySize=auto;html=1;exitX=0.75;exitY=1;exitDx=0;exitDy=0;" edge="1" parent="WIyWlLk6GJQsqaUBKTNV-1" source="gE25xzaNOcveznmByc2P-10" target="gE25xzaNOcveznmByc2P-19">
          <mxGeometry relative="1" as="geometry" />
        </mxCell>
        <mxCell id="gE25xzaNOcveznmByc2P-10" value="Orderly classes file opened/accessed," style="rounded=0;whiteSpace=wrap;html=1;" vertex="1" parent="WIyWlLk6GJQsqaUBKTNV-1">
          <mxGeometry x="30" y="380" width="120" height="60" as="geometry" />
        </mxCell>
        <mxCell id="gE25xzaNOcveznmByc2P-25" style="edgeStyle=orthogonalEdgeStyle;rounded=0;orthogonalLoop=1;jettySize=auto;html=1;exitX=0.5;exitY=1;exitDx=0;exitDy=0;" edge="1" parent="WIyWlLk6GJQsqaUBKTNV-1" source="gE25xzaNOcveznmByc2P-11" target="gE25xzaNOcveznmByc2P-19">
          <mxGeometry relative="1" as="geometry" />
        </mxCell>
        <mxCell id="gE25xzaNOcveznmByc2P-11" value="Chaotic classes file opened/accessed," style="rounded=0;whiteSpace=wrap;html=1;" vertex="1" parent="WIyWlLk6GJQsqaUBKTNV-1">
          <mxGeometry x="340" y="410" width="120" height="60" as="geometry" />
        </mxCell>
        <mxCell id="gE25xzaNOcveznmByc2P-24" style="edgeStyle=orthogonalEdgeStyle;rounded=0;orthogonalLoop=1;jettySize=auto;html=1;exitX=0.5;exitY=1;exitDx=0;exitDy=0;" edge="1" parent="WIyWlLk6GJQsqaUBKTNV-1" source="gE25xzaNOcveznmByc2P-12" target="gE25xzaNOcveznmByc2P-19">
          <mxGeometry relative="1" as="geometry" />
        </mxCell>
        <mxCell id="gE25xzaNOcveznmByc2P-12" value="Neutral classes file opened/accessed," style="rounded=0;whiteSpace=wrap;html=1;" vertex="1" parent="WIyWlLk6GJQsqaUBKTNV-1">
          <mxGeometry x="190" y="390" width="120" height="60" as="geometry" />
        </mxCell>
        <mxCell id="gE25xzaNOcveznmByc2P-17" value="" style="endArrow=classic;html=1;rounded=0;" edge="1" parent="WIyWlLk6GJQsqaUBKTNV-1">
          <mxGeometry width="50" height="50" relative="1" as="geometry">
            <mxPoint x="390" y="390" as="sourcePoint" />
            <mxPoint x="440" y="340" as="targetPoint" />
          </mxGeometry>
        </mxCell>
        <mxCell id="gE25xzaNOcveznmByc2P-18" value="" style="endArrow=classic;startArrow=classic;html=1;rounded=0;" edge="1" parent="WIyWlLk6GJQsqaUBKTNV-1">
          <mxGeometry width="50" height="50" relative="1" as="geometry">
            <mxPoint x="390" y="390" as="sourcePoint" />
            <mxPoint x="440" y="340" as="targetPoint" />
          </mxGeometry>
        </mxCell>
        <mxCell id="gE25xzaNOcveznmByc2P-40" style="edgeStyle=orthogonalEdgeStyle;rounded=0;orthogonalLoop=1;jettySize=auto;html=1;exitX=0;exitY=1;exitDx=0;exitDy=0;entryX=0.113;entryY=0.35;entryDx=0;entryDy=0;entryPerimeter=0;" edge="1" parent="WIyWlLk6GJQsqaUBKTNV-1" source="gE25xzaNOcveznmByc2P-19" target="gE25xzaNOcveznmByc2P-34">
          <mxGeometry relative="1" as="geometry" />
        </mxCell>
        <mxCell id="gE25xzaNOcveznmByc2P-41" style="edgeStyle=orthogonalEdgeStyle;rounded=0;orthogonalLoop=1;jettySize=auto;html=1;exitX=0.5;exitY=1;exitDx=0;exitDy=0;entryX=0.138;entryY=0.388;entryDx=0;entryDy=0;entryPerimeter=0;" edge="1" parent="WIyWlLk6GJQsqaUBKTNV-1" source="gE25xzaNOcveznmByc2P-19" target="gE25xzaNOcveznmByc2P-36">
          <mxGeometry relative="1" as="geometry" />
        </mxCell>
        <mxCell id="gE25xzaNOcveznmByc2P-42" style="edgeStyle=orthogonalEdgeStyle;rounded=0;orthogonalLoop=1;jettySize=auto;html=1;exitX=1;exitY=0.75;exitDx=0;exitDy=0;entryX=0.838;entryY=0.313;entryDx=0;entryDy=0;entryPerimeter=0;" edge="1" parent="WIyWlLk6GJQsqaUBKTNV-1" source="gE25xzaNOcveznmByc2P-19" target="gE25xzaNOcveznmByc2P-38">
          <mxGeometry relative="1" as="geometry" />
        </mxCell>
        <mxCell id="gE25xzaNOcveznmByc2P-19" value="What class would you like to progress towards?" style="shape=parallelogram;perimeter=parallelogramPerimeter;whiteSpace=wrap;html=1;fixedSize=1;" vertex="1" parent="WIyWlLk6GJQsqaUBKTNV-1">
          <mxGeometry x="150" y="525" width="120" height="60" as="geometry" />
        </mxCell>
        <mxCell id="gE25xzaNOcveznmByc2P-20" value="" style="endArrow=classic;startArrow=classic;html=1;rounded=0;" edge="1" parent="WIyWlLk6GJQsqaUBKTNV-1">
          <mxGeometry width="50" height="50" relative="1" as="geometry">
            <mxPoint x="390" y="380" as="sourcePoint" />
            <mxPoint x="440" y="330" as="targetPoint" />
          </mxGeometry>
        </mxCell>
        <mxCell id="gE25xzaNOcveznmByc2P-21" value="" style="endArrow=classic;html=1;rounded=0;" edge="1" parent="WIyWlLk6GJQsqaUBKTNV-1">
          <mxGeometry width="50" height="50" relative="1" as="geometry">
            <mxPoint x="390" y="380" as="sourcePoint" />
            <mxPoint x="440" y="330" as="targetPoint" />
          </mxGeometry>
        </mxCell>
        <mxCell id="gE25xzaNOcveznmByc2P-22" value="" style="endArrow=classic;html=1;rounded=0;" edge="1" parent="WIyWlLk6GJQsqaUBKTNV-1">
          <mxGeometry width="50" height="50" relative="1" as="geometry">
            <mxPoint x="390" y="380" as="sourcePoint" />
            <mxPoint x="440" y="330" as="targetPoint" />
          </mxGeometry>
        </mxCell>
        <mxCell id="gE25xzaNOcveznmByc2P-28" style="edgeStyle=orthogonalEdgeStyle;rounded=0;orthogonalLoop=1;jettySize=auto;html=1;" edge="1" parent="WIyWlLk6GJQsqaUBKTNV-1" source="gE25xzaNOcveznmByc2P-27" target="gE25xzaNOcveznmByc2P-19">
          <mxGeometry relative="1" as="geometry" />
        </mxCell>
        <mxCell id="gE25xzaNOcveznmByc2P-27" value="if statement check to make sure user access the correct classes" style="rounded=0;whiteSpace=wrap;html=1;" vertex="1" parent="WIyWlLk6GJQsqaUBKTNV-1">
          <mxGeometry x="340" y="525" width="90" height="85" as="geometry" />
        </mxCell>
        <mxCell id="gE25xzaNOcveznmByc2P-29" value="Sigil Knight" style="rhombus;whiteSpace=wrap;html=1;" vertex="1" parent="WIyWlLk6GJQsqaUBKTNV-1">
          <mxGeometry x="20" y="620" width="80" height="70" as="geometry" />
        </mxCell>
        <mxCell id="gE25xzaNOcveznmByc2P-47" style="edgeStyle=orthogonalEdgeStyle;rounded=0;orthogonalLoop=1;jettySize=auto;html=1;exitX=0;exitY=1;exitDx=0;exitDy=0;" edge="1" parent="WIyWlLk6GJQsqaUBKTNV-1" source="gE25xzaNOcveznmByc2P-34" target="gE25xzaNOcveznmByc2P-46">
          <mxGeometry relative="1" as="geometry" />
        </mxCell>
        <mxCell id="gE25xzaNOcveznmByc2P-34" value="Whisperer" style="rhombus;whiteSpace=wrap;html=1;" vertex="1" parent="WIyWlLk6GJQsqaUBKTNV-1">
          <mxGeometry x="85" y="615" width="80" height="80" as="geometry" />
        </mxCell>
        <mxCell id="gE25xzaNOcveznmByc2P-35" value="Chef" style="rhombus;whiteSpace=wrap;html=1;" vertex="1" parent="WIyWlLk6GJQsqaUBKTNV-1">
          <mxGeometry x="210" y="620" width="80" height="80" as="geometry" />
        </mxCell>
        <mxCell id="gE25xzaNOcveznmByc2P-48" style="edgeStyle=orthogonalEdgeStyle;rounded=0;orthogonalLoop=1;jettySize=auto;html=1;exitX=0;exitY=1;exitDx=0;exitDy=0;" edge="1" parent="WIyWlLk6GJQsqaUBKTNV-1" source="gE25xzaNOcveznmByc2P-36">
          <mxGeometry relative="1" as="geometry">
            <mxPoint x="300" y="740" as="targetPoint" />
          </mxGeometry>
        </mxCell>
        <mxCell id="gE25xzaNOcveznmByc2P-36" value="Blacksmith" style="rhombus;whiteSpace=wrap;html=1;" vertex="1" parent="WIyWlLk6GJQsqaUBKTNV-1">
          <mxGeometry x="280" y="620" width="80" height="80" as="geometry" />
        </mxCell>
        <mxCell id="gE25xzaNOcveznmByc2P-49" style="edgeStyle=orthogonalEdgeStyle;rounded=0;orthogonalLoop=1;jettySize=auto;html=1;exitX=0;exitY=1;exitDx=0;exitDy=0;entryX=0.675;entryY=-0.033;entryDx=0;entryDy=0;entryPerimeter=0;" edge="1" parent="WIyWlLk6GJQsqaUBKTNV-1" source="gE25xzaNOcveznmByc2P-38" target="gE25xzaNOcveznmByc2P-46">
          <mxGeometry relative="1" as="geometry" />
        </mxCell>
        <mxCell id="gE25xzaNOcveznmByc2P-38" value="Faceless" style="rhombus;whiteSpace=wrap;html=1;" vertex="1" parent="WIyWlLk6GJQsqaUBKTNV-1">
          <mxGeometry x="400" y="620" width="80" height="80" as="geometry" />
        </mxCell>
        <mxCell id="gE25xzaNOcveznmByc2P-39" value="Oni" style="rhombus;whiteSpace=wrap;html=1;" vertex="1" parent="WIyWlLk6GJQsqaUBKTNV-1">
          <mxGeometry x="480" y="620" width="80" height="80" as="geometry" />
        </mxCell>
        <mxCell id="gE25xzaNOcveznmByc2P-46" value="You arrive on the map and must find trinkets to earn money." style="rounded=1;whiteSpace=wrap;html=1;" vertex="1" parent="WIyWlLk6GJQsqaUBKTNV-1">
          <mxGeometry x="230" y="740" width="120" height="60" as="geometry" />
        </mxCell>
        <mxCell id="gE25xzaNOcveznmByc2P-54" style="edgeStyle=orthogonalEdgeStyle;rounded=0;orthogonalLoop=1;jettySize=auto;html=1;exitX=0;exitY=0.75;exitDx=0;exitDy=0;entryX=0.5;entryY=0;entryDx=0;entryDy=0;" edge="1" parent="WIyWlLk6GJQsqaUBKTNV-1" source="gE25xzaNOcveznmByc2P-50" target="gE25xzaNOcveznmByc2P-52">
          <mxGeometry relative="1" as="geometry" />
        </mxCell>
        <mxCell id="gE25xzaNOcveznmByc2P-55" style="edgeStyle=orthogonalEdgeStyle;rounded=0;orthogonalLoop=1;jettySize=auto;html=1;exitX=0.5;exitY=1;exitDx=0;exitDy=0;entryX=0.5;entryY=0;entryDx=0;entryDy=0;" edge="1" parent="WIyWlLk6GJQsqaUBKTNV-1" source="gE25xzaNOcveznmByc2P-50" target="gE25xzaNOcveznmByc2P-53">
          <mxGeometry relative="1" as="geometry" />
        </mxCell>
        <mxCell id="gE25xzaNOcveznmByc2P-56" style="edgeStyle=orthogonalEdgeStyle;rounded=0;orthogonalLoop=1;jettySize=auto;html=1;exitX=1;exitY=0.5;exitDx=0;exitDy=0;" edge="1" parent="WIyWlLk6GJQsqaUBKTNV-1" source="gE25xzaNOcveznmByc2P-50" target="gE25xzaNOcveznmByc2P-51">
          <mxGeometry relative="1" as="geometry" />
        </mxCell>
        <mxCell id="gE25xzaNOcveznmByc2P-50" value="You arrive on the map and must find trinkets to earn money. Where would you like to loot?" style="shape=parallelogram;perimeter=parallelogramPerimeter;whiteSpace=wrap;html=1;fixedSize=1;" vertex="1" parent="WIyWlLk6GJQsqaUBKTNV-1">
          <mxGeometry x="215" y="740" width="150" height="70" as="geometry" />
        </mxCell>
        <mxCell id="gE25xzaNOcveznmByc2P-51" value="Emerald Cove" style="rhombus;whiteSpace=wrap;html=1;" vertex="1" parent="WIyWlLk6GJQsqaUBKTNV-1">
          <mxGeometry x="400" y="860" width="80" height="80" as="geometry" />
        </mxCell>
        <mxCell id="gE25xzaNOcveznmByc2P-52" value="Deepforest" style="rhombus;whiteSpace=wrap;html=1;" vertex="1" parent="WIyWlLk6GJQsqaUBKTNV-1">
          <mxGeometry x="80" y="850" width="80" height="80" as="geometry" />
        </mxCell>
        <mxCell id="gE25xzaNOcveznmByc2P-53" value="Sentinel Castle" style="rhombus;whiteSpace=wrap;html=1;" vertex="1" parent="WIyWlLk6GJQsqaUBKTNV-1">
          <mxGeometry x="250" y="860" width="80" height="80" as="geometry" />
        </mxCell>
      </root>
    </mxGraphModel>
  </diagram>
</mxfile>
